<svg xmlns="http://www.w3.org/2000/svg" viewBox="0 0 16.032 12">
  <defs>
    <style>
      .cls-1 {
        fill: #666;
      }
    </style>
  </defs>
  <g id="Group_1061" data-name="Group 1061" transform="translate(0.016)">
    <path id="Path_327" data-name="Path 327" class="cls-1" d="M8.2,7.3c-1.1-.5-1.3-.6-1.3-.6V5.6a1.857,1.857,0,0,0,.5-1.3c.3.1.5-.4.6-.6,0-.2,0-.9-.3-.8V1.7A2.119,2.119,0,0,0,5.5,0,2.119,2.119,0,0,0,3.3,1.7a6.245,6.245,0,0,0,.1,1.2c-.3-.1-.4.6-.4.8s.3.7.5.6A1.857,1.857,0,0,0,4,5.6V6.7a7.9,7.9,0,0,1-1.4.6C1.7,7.8.5,8.1.2,8.6A13.4,13.4,0,0,0,0,11.9H11s.1-2.9-.2-3.3C10.5,8.1,9.3,7.8,8.2,7.3Z"/>
    <path id="Path_328" data-name="Path 328" class="cls-1" d="M15.8,8.9a2.19,2.19,0,0,0-1.3-1.2,4.329,4.329,0,0,1-1.2-.6V6.2A1.74,1.74,0,0,0,13.8,5c.2.1.5-.3.5-.6,0-.2,0-.8-.3-.7,0-.3.1-.7,0-.9a1.9,1.9,0,0,0-2-1.6,1.9,1.9,0,0,0-2,1.6,4.142,4.142,0,0,0,.1,1c-.2,0-.3.5-.2.7,0,.2.3.6.5.6a1.74,1.74,0,0,0,.5,1.2l-.3.3c.9.4,1.9,1.1,1.9,1.7V12H16C16,11.9,16.1,9.3,15.8,8.9Z"/>
  </g>
</svg>
