<svg id="Group_1148" data-name="Group 1148" xmlns="http://www.w3.org/2000/svg" viewBox="0 0 18 17.777">
  <defs>
    <style>
      .cls-1 {
        fill: #23376d;
      }
    </style>
  </defs>
  <path id="Path_301" data-name="Path 301" class="cls-1" d="M106.455,98.561a.52.52,0,0,0-.559.482l-.042.572a3.245,3.245,0,0,0-3.386-.366,3.174,3.174,0,0,0-1.747,2.244.523.523,0,0,0,.411.614.533.533,0,0,0,.1.01.522.522,0,0,0,.513-.419,2.136,2.136,0,0,1,1.178-1.511,2.181,2.181,0,0,1,2.162.161l-.654-.045a.52.52,0,1,0-.074,1.037l1.888.133h.039a.543.543,0,0,0,.345-.126.523.523,0,0,0,.179-.356l.134-1.874A.521.521,0,0,0,106.455,98.561Z" transform="translate(-97.17 -95.12)"/>
  <path id="Path_302" data-name="Path 302" class="cls-1" d="M304.42,102.3a1.41,1.41,0,1,0,1.42,1.41A1.416,1.416,0,0,0,304.42,102.3Zm0,1.777a.37.37,0,1,1,.373-.37A.372.372,0,0,1,304.42,104.077Z" transform="translate(-292.348 -98.729)"/>
  <path id="Path_303" data-name="Path 303" class="cls-1" d="M339.024,223.8a.523.523,0,0,0-.524.52v1.358a.524.524,0,0,0,1.048,0V224.32A.523.523,0,0,0,339.024,223.8Z" transform="translate(-326.6 -215.989)"/>
  <path id="Path_304" data-name="Path 304" class="cls-1" d="M384.724,184.9a.523.523,0,0,0-.524.52v2.716a.524.524,0,0,0,1.048,0V185.42A.523.523,0,0,0,384.724,184.9Z" transform="translate(-370.693 -178.446)"/>
  <path id="Path_305" data-name="Path 305" class="cls-1" d="M293.224,219.1a.523.523,0,0,0-.524.52v1.522a.524.524,0,0,0,1.048,0V219.62A.521.521,0,0,0,293.224,219.1Z" transform="translate(-282.41 -211.453)"/>
  <path id="Path_306" data-name="Path 306" class="cls-1" d="M247.524,240.3a.523.523,0,0,0-.524.52v.782a.524.524,0,0,0,1.048,0v-.782A.523.523,0,0,0,247.524,240.3Z" transform="translate(-238.316 -231.913)"/>
  <path id="Path_307" data-name="Path 307" class="cls-1" d="M100.537,216.6a.529.529,0,0,0-.742,0l-.425.422-.425-.422a.529.529,0,0,0-.742,0,.52.52,0,0,0,0,.736l.425.422-.422.419a.52.52,0,0,0,0,.736.526.526,0,0,0,.373.154.532.532,0,0,0,.373-.154l.425-.422.425.422a.526.526,0,0,0,.373.154.538.538,0,0,0,.373-.154.52.52,0,0,0,0-.736l-.425-.422.425-.422A.525.525,0,0,0,100.537,216.6Z" transform="translate(-94.603 -208.895)"/>
  <path id="Path_308" data-name="Path 308" class="cls-1" d="M18,1.546A1.555,1.555,0,0,0,16.443,0H1.557A1.545,1.545,0,0,0,.749,2.869V11.9a.523.523,0,0,0,.524.52h7.2V14.01l-2.9,2.876a.52.52,0,0,0,0,.736.525.525,0,0,0,.742,0l2.159-2.14v1.773a.524.524,0,0,0,1.048,0V15.483l2.159,2.14a.524.524,0,0,0,.369.154.538.538,0,0,0,.373-.154.52.52,0,0,0,0-.736L9.52,14.01V12.422h7.2a.523.523,0,0,0,.524-.52V2.869A1.537,1.537,0,0,0,18,1.546ZM16.443,1.04a.506.506,0,1,1,0,1.012H1.557a.506.506,0,1,1,0-1.012ZM1.8,11.382V3.092H16.2v8.29Z" transform="translate(0 0)"/>
</svg>
