<svg id="Group_1073" data-name="Group 1073" xmlns="http://www.w3.org/2000/svg" viewBox="0 0 15 16">
  <defs>
    <style>
      .cls-1 {
        fill: rgba(0,0,0,0.5);
      }
    </style>
  </defs>
  <path id="Path_340" data-name="Path 340" class="cls-1" d="M14.5,3H11V2c0-2-1-2-2-2H6C4,0,4,1,4,2V3H.5a.472.472,0,0,0-.5.5v1A.472.472,0,0,0,.5,5h14a.472.472,0,0,0,.5-.5v-1A.472.472,0,0,0,14.5,3ZM6,2H9V3H6Z"/>
  <path id="Path_341" data-name="Path 341" class="cls-1" d="M11,6.1v7.4a.5.5,0,0,1-1,0V6H8v7.5a.5.5,0,0,1-1,0V6H5v7.5a.472.472,0,0,1-.5.5.472.472,0,0,1-.5-.5V6H2v9.5a.472.472,0,0,0,.5.5h10a.472.472,0,0,0,.5-.5V6l-2,.1Z"/>
</svg>
