<svg id="if_Download_1031520" xmlns="http://www.w3.org/2000/svg" viewBox="0 0 20 20">
  <defs>
    <style>
      .cls-1 {
        fill: #F58220;
      }
    </style>
  </defs>
  <path id="Path_382" data-name="Path 382" class="cls-1" d="M19.375,22a.625.625,0,0,0-.625.625V27H1.25V22.625a.625.625,0,0,0-1.25,0v5a.625.625,0,0,0,.625.625h18.75A.625.625,0,0,0,20,27.625v-5A.625.625,0,0,0,19.375,22Z" transform="translate(0 -8.25)"/>
  <path id="Path_383" data-name="Path 383" class="cls-1" d="M12.535,14.817a.64.64,0,0,0,.893,0L17.8,10.5a.62.62,0,0,0,0-.884.635.635,0,0,0-.892,0l-3.3,3.25V.625a.631.631,0,0,0-1.262,0V12.871l-3.3-3.25a.635.635,0,0,0-.892,0,.62.62,0,0,0,0,.884Z" transform="translate(-2.991)"/>
</svg>
