<svg id="Group_1154" data-name="Group 1154" xmlns="http://www.w3.org/2000/svg" viewBox="0 0 18 17.871">
  <defs>
    <style>
      .cls-1 {
        fill: #23376d;
      }
    </style>
  </defs>
  <path id="Path_309" data-name="Path 309" class="cls-1" d="M145.216,168.967v-3.113a.528.528,0,0,0,.381-.5v-1.832a.539.539,0,0,0-.555-.523h-6.687a.539.539,0,0,0-.555.523v1.836a.528.528,0,0,0,.381.5v3.109a.539.539,0,0,0,.555.523h5.925A.542.542,0,0,0,145.216,168.967Zm-.729-4.132H138.91v-.789h5.581l0,.789Zm-5.2,1.047h4.815v2.561h-4.815Z" transform="translate(-132.7 -157.312)"/>
  <path id="Path_310" data-name="Path 310" class="cls-1" d="M210.228,269.9h-1.473a.524.524,0,1,0,0,1.047h1.473a.524.524,0,1,0,0-1.047Z" transform="translate(-200.495 -260.481)"/>
  <path id="Path_311" data-name="Path 311" class="cls-1" d="M16.424,6.8A7.25,7.25,0,0,0,9,0,7.246,7.246,0,0,0,1.573,6.8,2.028,2.028,0,0,0,0,8.735v2.09a2.069,2.069,0,0,0,2.124,2,2.066,2.066,0,0,0,2.124-2V8.735A2.024,2.024,0,0,0,2.683,6.8,6.17,6.17,0,0,1,9,1.047,6.17,6.17,0,0,1,15.317,6.8a2.028,2.028,0,0,0-1.565,1.93v2.09a2.027,2.027,0,0,0,1.543,1.926,4.7,4.7,0,0,1-4.237,4.041V15.6a.539.539,0,0,0-.555-.523H8.648a1.4,1.4,0,1,0,0,2.792H10.5a5.812,5.812,0,0,0,5.906-5.105A2.031,2.031,0,0,0,18,10.829V8.738A2.04,2.04,0,0,0,16.424,6.8ZM3.134,10.825a.988.988,0,0,1-1.014.956h0a.988.988,0,0,1-1.014-.956V8.735A.988.988,0,0,1,2.12,7.779a.988.988,0,0,1,1.014.956Zm6.809,6h-1.3a.35.35,0,1,1,0-.7h1.3Zm6.942-6a.988.988,0,0,1-1.014.956h0a.988.988,0,0,1-1.014-.956V8.735a1.016,1.016,0,0,1,2.028,0Z" transform="translate(0 0)"/>
</svg>
