<svg xmlns="http://www.w3.org/2000/svg" viewBox="0 0 50 50">
  <defs>
    <style>
      .cls-1 {
        fill: #fff;
      }

      .cls-2, .cls-4 {
        fill: none;
      }

      .cls-2 {
        stroke: #fff;
      }

      .cls-3 {
        stroke: none;
      }
    </style>
  </defs>
  <g id="if_cart_1814095" transform="translate(-1787.6 -10.8)">
    <g id="Icon-Cart" transform="translate(1799.6 25.8)">
      <path id="Fill-110" class="cls-1" d="M-46.086-449.023H-62.272a.614.614,0,0,1-.588-.32.657.657,0,0,1-.053-.694l1.389-3.526L-62.913-466.7H-67.4v-1.5h5.128a.749.749,0,0,1,.748.641l1.5,13.942a1.043,1.043,0,0,1-.053.374l-1.068,2.671h15.064v1.549" transform="translate(67.4 468.2)"/>
      <path id="Fill-111" class="cls-1" d="M-55.492-450.1l-.321-1.442,17.041-3.526V-461.1H-56.4v-1.5h18.376a.73.73,0,0,1,.748.748v7.372a.7.7,0,0,1-.588.694L-55.492-450.1" transform="translate(62.276 465.591)"/>
      <path id="Fill-112" class="cls-1" d="M-28.662-429.124a2.964,2.964,0,0,1-2.938-2.938A2.964,2.964,0,0,1-28.662-435a2.964,2.964,0,0,1,2.938,2.938,2.964,2.964,0,0,1-2.938,2.938Zm0-4.434a1.493,1.493,0,0,0-1.5,1.5,1.461,1.461,0,0,0,1.5,1.5,1.461,1.461,0,0,0,1.5-1.5,1.493,1.493,0,0,0-1.5-1.5Z" transform="translate(50.724 452.735)"/>
      <path id="Fill-113" class="cls-1" d="M-61.662-429.124a2.964,2.964,0,0,1-2.938-2.938A2.964,2.964,0,0,1-61.662-435a2.964,2.964,0,0,1,2.938,2.938,2.964,2.964,0,0,1-2.938,2.938Zm0-4.434a1.493,1.493,0,0,0-1.5,1.5,1.461,1.461,0,0,0,1.5,1.5,1.461,1.461,0,0,0,1.5-1.5,1.493,1.493,0,0,0-1.5-1.5Z" transform="translate(66.096 452.735)"/>
    </g>
    <g id="Ellipse_293" data-name="Ellipse 293" class="cls-2" transform="translate(1787.6 10.8)">
      <circle class="cls-3" cx="25" cy="25" r="25"/>
      <circle class="cls-4" cx="25" cy="25" r="24.5"/>
    </g>
  </g>
</svg>
