<svg xmlns="http://www.w3.org/2000/svg" viewBox="0 0 34 32.713">
  <defs>
    <style>
      .cls-1 {
        fill: #9b9b9b;
      }
    </style>
  </defs>
  <g id="Group_1198" data-name="Group 1198" transform="translate(-0.345 -1.391)">
    <path id="Path_385" data-name="Path 385" class="cls-1" d="M44.758,252.65a.663.663,0,0,0,.665-.661v-11.4a.664.664,0,0,0-.665-.661H42.22a.663.663,0,0,0-.665.661v11.4a.662.662,0,0,0,.665.661Z" transform="translate(-38.474 -222.698)"/>
    <path id="Path_386" data-name="Path 386" class="cls-1" d="M38.906,448.188H7.034a.665.665,0,0,0-.663.662v1.718a.664.664,0,0,0,.663.662H38.906a.66.66,0,0,0,.661-.662V448.85A.66.66,0,0,0,38.906,448.188Z" transform="translate(-5.626 -417.127)"/>
    <path id="Path_387" data-name="Path 387" class="cls-1" d="M168.591,252.65a.662.662,0,0,0,.661-.661v-11.4a.663.663,0,0,0-.661-.661h-2.544a.661.661,0,0,0-.659.661v11.4a.66.66,0,0,0,.659.661Z" transform="translate(-154.083 -222.698)"/>
    <path id="Path_388" data-name="Path 388" class="cls-1" d="M416.1,252.65a.664.664,0,0,0,.663-.661v-11.4a.665.665,0,0,0-.663-.661h-2.545a.662.662,0,0,0-.66.661v11.4a.661.661,0,0,0,.66.661Z" transform="translate(-385.153 -222.698)"/>
    <path id="Path_389" data-name="Path 389" class="cls-1" d="M33.48,13.505,19.895,2.261a4.177,4.177,0,0,0-5.1,0L1.21,13.505C-.2,14.67.149,15.617,1.971,15.617h30.75C34.541,15.617,34.884,14.67,33.48,13.505Zm-16.136-.624a2.579,2.579,0,1,1,2.58-2.581A2.581,2.581,0,0,1,17.344,12.882Z" transform="translate(0 0)"/>
    <path id="Path_390" data-name="Path 390" class="cls-1" d="M292.319,252.65a.661.661,0,0,0,.663-.661v-11.4a.662.662,0,0,0-.663-.661h-2.54a.662.662,0,0,0-.664.661v11.4a.661.661,0,0,0,.664.661Z" transform="translate(-269.594 -222.698)"/>
  </g>
</svg>
