<svg xmlns="http://www.w3.org/2000/svg" viewBox="0 0 121 120.997">
  <defs>
    <style>
      .cls-1 {
        fill: none;
        stroke: #333;
      }
    </style>
  </defs>
  <path id="Profile_big" data-name="Profile big" class="cls-1" d="M-5675,215a59.636,59.636,0,0,1-23.355-4.715,59.808,59.808,0,0,1-19.07-12.859,59.807,59.807,0,0,1-12.858-19.072A59.623,59.623,0,0,1-5735,155a59.62,59.62,0,0,1,4.716-23.354,59.8,59.8,0,0,1,12.858-19.071,59.808,59.808,0,0,1,19.07-12.857A59.642,59.642,0,0,1-5675,95a59.636,59.636,0,0,1,23.356,4.715,59.793,59.793,0,0,1,19.069,12.857,59.774,59.774,0,0,1,12.86,19.071A59.618,59.618,0,0,1-5615,155a59.621,59.621,0,0,1-4.714,23.354,59.78,59.78,0,0,1-12.86,19.072,59.793,59.793,0,0,1-19.069,12.859A59.631,59.631,0,0,1-5675,215Zm-6.933-64.56v0c.475,3.305,1.668,4.546,1.68,4.557v3.6l-.047.025c-.889.433-2.491,1.192-4.512,2.137l-.982.365-.116.043c-3.465,1.283-6.457,2.392-7.541,3.91-.946,1.418-.724,9.042-.722,9.119h37.438c0-.072.241-7.683-.718-9.119-1.083-1.516-4.071-2.623-7.528-3.9l-.1-.036-1.013-.377c-3.706-1.39-4.53-2.131-4.563-2.162V155c.016-.01,1.446-.992,1.92-4.318a.873.873,0,0,0,.211.026c.853,0,1.488-1.309,1.711-2.189,0-.608-.2-2.881-1.2-2.881l.062-.44a9.6,9.6,0,0,0,.176-3.4,7.611,7.611,0,0,0-7.679-6c-3.34,0-7.133,2.294-7.439,6a26.807,26.807,0,0,0,.238,3.838.612.612,0,0,0-.145-.018c-.875,0-1.055,2.1-1.055,2.661,0,.682.837,2.183,1.73,2.183a.773.773,0,0,0,.188-.023Z" transform="translate(5735.501 -94.501)"/>
</svg>
