<svg xmlns="http://www.w3.org/2000/svg" viewBox="0 0 50 50">
  <defs>
    <style>
      .cls-1, .cls-4 {
        fill: none;
      }

      .cls-1 {
        stroke: #fff;
      }

      .cls-2 {
        fill: #fff;
      }

      .cls-3 {
        stroke: none;
      }
    </style>
  </defs>
  <g id="if_cart_1814095" transform="translate(-1787.6 -10.8)">
    <g id="Ellipse_293" data-name="Ellipse 293" class="cls-1" transform="translate(1787.6 10.8)">
      <circle class="cls-3" cx="25" cy="25" r="25"/>
      <circle class="cls-4" cx="25" cy="25" r="24.5"/>
    </g>
    <path id="Path_396" data-name="Path 396" class="cls-2" d="M49.765,39.373H27.521l.571-.928c2.364-3.844,2.393-13.394,2.393-13.49a8.056,8.056,0,0,1,7.661-8.037V14.727a.609.609,0,1,1,1.218,0v2.206A8.056,8.056,0,0,1,46.8,24.955c0,.1.029,9.646,2.393,13.49ZM29.62,38.155H47.666c-2.057-4.486-2.083-12.822-2.083-13.2a6.836,6.836,0,0,0-6.828-6.828H38.53A6.836,6.836,0,0,0,31.7,24.955C31.7,25.333,31.677,33.669,29.62,38.155Z" transform="translate(1774.329 6.222)"/>
    <path id="Path_397" data-name="Path 397" class="cls-2" d="M56.227,104.752a3.429,3.429,0,0,1-3.424-3.425.609.609,0,0,1,1.218,0,2.207,2.207,0,1,0,4.413,0,.609.609,0,0,1,1.218,0A3.429,3.429,0,0,1,56.227,104.752Z" transform="translate(1756.744 -54.011)"/>
  </g>
</svg>
