<svg xmlns="http://www.w3.org/2000/svg" viewBox="0 0 21.875 25">
  <defs>
    <style>
      .cls-1 {
        fill: #464c60;
      }
    </style>
  </defs>
  <path id="calendar-alt" class="cls-1" d="M7.227,14.063H5.273a.588.588,0,0,1-.586-.586V11.523a.588.588,0,0,1,.586-.586H7.227a.588.588,0,0,1,.586.586v1.953A.588.588,0,0,1,7.227,14.063Zm5.273-.586V11.523a.588.588,0,0,0-.586-.586H9.961a.588.588,0,0,0-.586.586v1.953a.588.588,0,0,0,.586.586h1.953A.588.588,0,0,0,12.5,13.477Zm4.688,0V11.523a.588.588,0,0,0-.586-.586H14.648a.588.588,0,0,0-.586.586v1.953a.588.588,0,0,0,.586.586H16.6A.588.588,0,0,0,17.188,13.477ZM12.5,18.164V16.211a.588.588,0,0,0-.586-.586H9.961a.588.588,0,0,0-.586.586v1.953a.588.588,0,0,0,.586.586h1.953A.588.588,0,0,0,12.5,18.164Zm-4.687,0V16.211a.588.588,0,0,0-.586-.586H5.273a.588.588,0,0,0-.586.586v1.953a.588.588,0,0,0,.586.586H7.227A.588.588,0,0,0,7.813,18.164Zm9.375,0V16.211a.588.588,0,0,0-.586-.586H14.648a.588.588,0,0,0-.586.586v1.953a.588.588,0,0,0,.586.586H16.6A.588.588,0,0,0,17.188,18.164Zm4.688-12.7V22.656A2.344,2.344,0,0,1,19.531,25H2.344A2.344,2.344,0,0,1,0,22.656V5.469A2.344,2.344,0,0,1,2.344,3.125H4.688V.586A.588.588,0,0,1,5.273,0H7.227a.588.588,0,0,1,.586.586V3.125h6.25V.586A.588.588,0,0,1,14.648,0H16.6a.588.588,0,0,1,.586.586V3.125h2.344A2.344,2.344,0,0,1,21.875,5.469ZM19.531,22.363V7.813H2.344V22.363a.294.294,0,0,0,.293.293h16.6A.294.294,0,0,0,19.531,22.363Z"/>
</svg>
