<svg xmlns="http://www.w3.org/2000/svg" viewBox="0 0 25 17">
  <defs>
    <style>
      .cls-1 {
        fill: #fff;
      }
    </style>
  </defs>
  <path id="bars" class="cls-1" d="M.893,63.122H24.107A.812.812,0,0,0,25,62.429V60.694A.812.812,0,0,0,24.107,60H.893A.812.812,0,0,0,0,60.694v1.735A.812.812,0,0,0,.893,63.122Zm0,6.939H24.107A.812.812,0,0,0,25,69.367V67.633a.812.812,0,0,0-.893-.694H.893A.812.812,0,0,0,0,67.633v1.735A.812.812,0,0,0,.893,70.061ZM.893,77H24.107A.812.812,0,0,0,25,76.306V74.571a.812.812,0,0,0-.893-.694H.893A.812.812,0,0,0,0,74.571v1.735A.812.812,0,0,0,.893,77Z" transform="translate(0 -60)"/>
</svg>
