<svg xmlns="http://www.w3.org/2000/svg" xmlns:xlink="http://www.w3.org/1999/xlink" viewBox="0 0 25 25.053">
  <defs>
    <style>
      .cls-1 {
        fill: gray;
      }

      .cls-2 {
        clip-path: url(#clip-path);
      }
    </style>
    <clipPath id="clip-path">
      <rect id="Rectangle_1715" data-name="Rectangle 1715" class="cls-1" width="25" height="25.053"/>
    </clipPath>
  </defs>
  <g id="Group_1066" data-name="Group 1066" transform="translate(0 -0.1)">
    <g id="Group_1065" data-name="Group 1065" transform="translate(0 0.1)">
      <g id="Group_1064" data-name="Group 1064" class="cls-2" transform="translate(0 0)">
        <path id="Path_335" data-name="Path 335" class="cls-1" d="M23.4,5.075a7.472,7.472,0,0,0,1.656-3.846,1.287,1.287,0,0,0-.214-.8.768.768,0,0,0-.107-.16c-.053-.053-.107-.107-.16-.107a1.5,1.5,0,0,0-.8-.16,7.472,7.472,0,0,0-3.846,1.656,32.467,32.467,0,0,0-3.739,3.632c-.267.267-.534.588-.855.855L12.34,5.235h0a.8.8,0,0,0,.214-.481.58.58,0,0,0-.214-.481l-.534-.534a.8.8,0,0,0-.481-.214.58.58,0,0,0-.481.214l-.8.8-.427-.107a.607.607,0,0,0,.16-.427.58.58,0,0,0-.214-.481l-.534-.534a.8.8,0,0,0-.481-.214.653.653,0,0,0-.481.214l-.641.748L4.38,2.831c-.053,0-.16-.053-.214-.053a.854.854,0,0,0-.534.267L2.564,4.113a.486.486,0,0,0-.214.427.588.588,0,0,0,.321.534l6.41,3.579c.053,0,.107.107.16.107l1.816,1.816C9.348,12.393,7.853,14.1,6.677,15.6c-.107.16-.214.267-.321.427L1.442,15.6H1.335a.858.858,0,0,0-.588.267l-.481.481A.44.44,0,0,0,0,16.774a.581.581,0,0,0,.374.534l3.472,1.656a.115.115,0,0,1,.107.107l.321.267a1.847,1.847,0,0,0-.16.641.885.885,0,0,0,.267.641h0a.851.851,0,0,0,.641.214,1.422,1.422,0,0,0,.641-.16l.267.267s.053.107.107.107l1.656,3.472a.643.643,0,0,0,.534.374h0a.607.607,0,0,0,.427-.16l.534-.534a1.186,1.186,0,0,0,.267-.588v-.053L8.974,18.7c.16-.107.267-.214.427-.321C10.9,17.2,12.66,15.652,14.423,14l1.816,1.816c.053.053.107.107.107.16l3.579,6.357a.588.588,0,0,0,.534.321.486.486,0,0,0,.427-.214l1.068-1.068a.686.686,0,0,0,.214-.534.321.321,0,0,0-.053-.214l-.855-2.991.748-.748a.8.8,0,0,0,.214-.481.653.653,0,0,0-.214-.481l-.534-.534a.8.8,0,0,0-.481-.214.607.607,0,0,0-.427.16l-.107-.427.8-.8a.8.8,0,0,0,.214-.481.653.653,0,0,0-.214-.481l-.534-.534a.8.8,0,0,0-.481-.214.58.58,0,0,0-.481.214h0l-.908-2.991.855-.855A33.77,33.77,0,0,0,23.4,5.075Zm0,0" transform="translate(0 -0.053)"/>
      </g>
    </g>
  </g>
</svg>
