<svg xmlns="http://www.w3.org/2000/svg" width="104" height="104" viewBox="0 0 104 104">
  <g id="Group_1043" data-name="Group 1043" transform="translate(-1079 -490.798)">
    <g id="Ellipse_156" data-name="Ellipse 156" transform="translate(1079 490.798)" fill="none" stroke="#1c9bd8" stroke-width="3">
      <ellipse cx="52" cy="52" rx="52" ry="52" stroke="none"/>
      <ellipse cx="52" cy="52" rx="50.5" ry="50.5" fill="none"/>
    </g>
    <path id="iconmonstr-marketing-37" d="M46.753,29.05c0-4.861-3.239-8.813-7.76-10.874l.053-.9C39.046,7.825,29.77,1,19.523,1,9.211,1,0,7.874,0,17.28a14.343,14.343,0,0,0,3.329,9.15c.09,2.977-1.661,7.249-3.241,10.363,4.233-.767,10.251-2.456,12.979-4.129a28.6,28.6,0,0,0,4.879.757c2.028,4.49,7.071,8,13.789,8a21.458,21.458,0,0,0,5.043-.627c2.081,1.277,6.679,2.567,9.912,3.153-1.207-2.378-2.544-5.638-2.475-7.913a10.947,10.947,0,0,0,2.54-6.987Zm-9.648,9.66a20.973,20.973,0,0,1-5.371.761c-5.578,0-9.644-2.677-11.579-6.009,9.912-.193,17.008-6.222,18.562-13.272C42.361,22.05,44.8,25.318,44.8,29.05c0,.863.047,3.18-2.52,6.253a13.325,13.325,0,0,0,1.054,5.884c-4.639-1.253-5.82-2.226-6.23-2.477ZM12.739,30.575c-1.169.718-3.063,1.925-9.248,3.479,1.689-4.164,1.831-6.31,1.769-8.358A12.547,12.547,0,0,1,1.952,17.28c0-7.9,7.883-14.328,17.571-14.328S37.093,9.379,37.093,17.28c0,6.854-6.661,14.252-17.422,14.252a27.523,27.523,0,0,1-6.933-.957Zm7.739-19.412a1.544,1.544,0,0,0-2.987.566c-.279.611-1.523,2.8-5.65,4.824a3.493,3.493,0,0,0-2.079,3.137A3.376,3.376,0,0,0,13.832,22.9l2.036,2.251a1.745,1.745,0,0,0,1.835.492l1.187-.4a1.419,1.419,0,0,0,.736-2.118l-1.05-1.63a8.727,8.727,0,0,1,2.839.076,1.535,1.535,0,0,0,2.608-1.527l-3.545-8.883Zm-4.795,9.254,2.083,3.247-.57.191-2.755-3.044-.566.182a1.683,1.683,0,0,1-2.153-.759,1.568,1.568,0,0,1,.933-2.013c4.281-2.1,5.89-4.459,6.437-5.535l2.831,7.106A10.257,10.257,0,0,0,15.683,20.417Zm13.6-4.143a7.977,7.977,0,0,1-.7,3.28l-1.695-.732a6.21,6.21,0,0,0-3.368-8.315l.724-1.7a8.029,8.029,0,0,1,5.041,7.466Zm-3.118-2a5.274,5.274,0,0,1-.086,4.2l-1.663-.693a3.542,3.542,0,0,0,.068-2.819,3.481,3.481,0,0,0-2.013-1.968l.707-1.677a5.306,5.306,0,0,1,2.987,2.962Z" transform="translate(1107 519.802)" fill="#0d2234" fill-rule="evenodd"/>
  </g>
</svg>
