<svg xmlns="http://www.w3.org/2000/svg" width="104" height="104" viewBox="0 0 104 104">
  <g id="Group_1039" data-name="Group 1039" transform="translate(-1079 -229.923)">
    <g id="Ellipse_152" data-name="Ellipse 152" transform="translate(1079 229.923)" fill="none" stroke="#1c9bd8" stroke-width="3">
      <ellipse cx="52" cy="52" rx="52" ry="52" stroke="none"/>
      <ellipse cx="52" cy="52" rx="50.5" ry="50.5" fill="none"/>
    </g>
    <path id="iconmonstr-marketing-31" d="M20.7,7.685A11.534,11.534,0,0,1,31.665,0,11.4,11.4,0,0,1,43.223,11.227c0,3.812-1.854,6.9-4.762,9.984A19.159,19.159,0,0,1,20.227,45.977H20.15a19.15,19.15,0,0,1,0-38.3h.077l.47.008Zm5.437,26.861H14.25c1.217,5.748,3.675,9.512,5.942,9.512S24.917,40.294,26.134,34.546Zm-13.847,0H4.675A17.325,17.325,0,0,0,16.07,43.656,21.062,21.062,0,0,1,12.287,34.546Zm23.338,0H28.1a21.1,21.1,0,0,1-3.762,9.084A17.318,17.318,0,0,0,35.625,34.546ZM24.777,21.111H13.889A39.648,39.648,0,0,0,13.9,32.627H26.483a38.742,38.742,0,0,0,.426-5.8c0-1.3-.061-2.556-.177-3.76C26.04,22.413,25.386,21.762,24.777,21.111ZM36.93,22.754c-1.57,1.509-3.355,3.046-5.264,4.7-1-.864-1.961-1.695-2.879-2.508.029.622.042,1.249.042,1.887a41.17,41.17,0,0,1-.4,5.8h8.013a17.362,17.362,0,0,0,.491-9.872ZM11.947,21.111H3.862a17.327,17.327,0,0,0,0,11.515h8.1a41.923,41.923,0,0,1-.012-11.515ZM31.665,1.919A9.488,9.488,0,0,1,41.3,11.227c0,5.046-3.984,8.778-9.638,13.686-5.654-4.907-9.636-8.64-9.636-13.686A9.487,9.487,0,0,1,31.665,1.919Zm.042,1.919a7.677,7.677,0,1,1-7.677,7.677A7.68,7.68,0,0,1,31.707,3.838ZM20.231,9.6h-.05c-2.272.012-4.739,3.81-5.948,9.6h8.9a12.724,12.724,0,0,1-3.025-7.965A11.159,11.159,0,0,1,20.231,9.6Zm-4.247.507A17.319,17.319,0,0,0,4.675,19.192H12.27A21.405,21.405,0,0,1,15.983,10.1ZM32.627,9.6H30.707V5.844a5.766,5.766,0,0,0-4.677,4.712h3.758v1.919H26.03a5.766,5.766,0,0,0,4.677,4.712V13.435h1.919V17.2a5.764,5.764,0,0,0,4.758-4.725H33.627V10.556h3.758a5.764,5.764,0,0,0-4.758-4.725Z" transform="translate(1109 256.464)" fill="#0d2234" fill-rule="evenodd"/>
  </g>
</svg>
