<svg xmlns="http://www.w3.org/2000/svg" width="20" height="20" viewBox="0 0 20 20">
  <path id="iconmonstr-user-2" d="M17.352,15.08c-2.866-.662-5.534-1.242-4.242-3.682C17.042,3.972,14.152,0,10,0,5.765,0,2.946,4.124,6.89,11.4c1.332,2.454-1.437,3.034-4.242,3.682C.166,15.653,0,16.866,0,18.966L0,20H1.667c0-2.612-.1-2.958,1.532-3.336,2.376-.547,4.619-1.065,5.437-2.88A3.453,3.453,0,0,0,8.354,10.6C6.639,7.439,6.206,4.7,7.168,3.083a3.528,3.528,0,0,1,5.639-.028c.958,1.592.533,4.349-1.169,7.563A3.476,3.476,0,0,0,11.38,13.8c.825,1.806,3.089,2.328,5.487,2.882,1.566.363,1.467.735,1.467,3.322H20l0-1.034C20,16.866,19.834,15.653,17.352,15.08Z" fill="#0d2234"/>
</svg>
