<svg xmlns="http://www.w3.org/2000/svg" width="104" height="104" viewBox="0 0 104 104">
  <g id="Group_1040" data-name="Group 1040" transform="translate(-259 -490.798)">
    <g id="Ellipse_157" data-name="Ellipse 157" transform="translate(259 490.798)" fill="none" stroke="#1c9bd8" stroke-width="3">
      <ellipse cx="52" cy="52" rx="52" ry="52" stroke="none"/>
      <ellipse cx="52" cy="52" rx="50.5" ry="50.5" fill="none"/>
    </g>
    <path id="iconmonstr-marketing-33" d="M37.4,38.729a11.286,11.286,0,0,1-15.873-1.287A18.8,18.8,0,1,1,37.442,21.526,11.286,11.286,0,0,1,38.729,37.4l6.434,6.434-1.33,1.33L37.4,38.729ZM30.108,20.7A9.409,9.409,0,1,1,20.7,30.108,9.412,9.412,0,0,1,30.108,20.7ZM18.818,30.108a11.277,11.277,0,0,1-9.1-4.614L4.81,28.326a16.929,16.929,0,0,0,14.008,7.427c.5,0,.986-.028,1.47-.075a11.23,11.23,0,0,1-1.47-5.5v-.073Zm8.468,4.667H25.4V31h1.882Zm3.764,0H29.167V29.119h1.882Zm3.764,0H32.931V25.442h1.882Zm-6.59-15.8,0-.156a9.409,9.409,0,1,0-9.409,9.409l.156,0A11.314,11.314,0,0,1,28.223,18.974ZM1.882,18.818a16.959,16.959,0,0,1,16-16.91V7.567A11.288,11.288,0,0,0,8.731,23.889L3.839,26.714A16.819,16.819,0,0,1,1.882,18.818Zm33.8,1.47c.047-.484.075-.973.075-1.47a16.958,16.958,0,0,0-16-16.91V7.567a11.3,11.3,0,0,1,10.35,11.251h.073A11.235,11.235,0,0,1,35.678,20.287Z" transform="translate(289 520.781)" fill="#0d2234" fill-rule="evenodd"/>
  </g>
</svg>
