<svg xmlns="http://www.w3.org/2000/svg" xmlns:xlink="http://www.w3.org/1999/xlink" width="93.879" height="55.213" viewBox="0 0 93.879 55.213">
  <defs>
    <clipPath id="clip-path">
      <path id="Path_111" data-name="Path 111" d="M0-14.361H93.879V-69.574H0Z" transform="translate(0 69.574)" fill="none"/>
    </clipPath>
  </defs>
  <g id="Group_860" data-name="Group 860" transform="translate(0 -2)">
    <g id="Group_348" data-name="Group 348" transform="translate(0 2)" clip-path="url(#clip-path)">
      <g id="Group_345" data-name="Group 345" transform="translate(0 45.068)">
        <path id="Path_108" data-name="Path 108" d="M-2.072-2.6-3.954-6.42A2.887,2.887,0,0,0-2.543-7.495a3.233,3.233,0,0,0,.471-1.82,3.27,3.27,0,0,0-.267-1.37,2.79,2.79,0,0,0-.731-.976,3.032,3.032,0,0,0-1.082-.583,4.446,4.446,0,0,0-1.307-.19h-4.58V-2.6h1.966v-3.54H-6.09L-4.334-2.6ZM-5.5-7.993H-8.072v-2.529H-5.5a1.648,1.648,0,0,1,1.032.288,1.143,1.143,0,0,1,.373.963q0,1.278-1.405,1.278m13.221-4.44H5.753V-2.6H7.721Zm0,9.835,15.2-4.3a2.637,2.637,0,0,0-.766-.857A3.808,3.808,0,0,0,21.1-8.281q-.583-.19-1.174-.33c-.393-.094-.717-.178-.969-.253a2.988,2.988,0,0,1-.6-.239.8.8,0,0,1-.316-.288.8.8,0,0,1-.091-.4.763.763,0,0,1,.071-.324.738.738,0,0,1,.238-.281,1.356,1.356,0,0,1,.436-.2,2.406,2.406,0,0,1,.66-.078,2.766,2.766,0,0,1,1.216.26,3.6,3.6,0,0,1,1.018.752l1.419-1.377a5.293,5.293,0,0,0-1.567-1.138,4.68,4.68,0,0,0-2.016-.408,4.639,4.639,0,0,0-1.37.2,3.469,3.469,0,0,0-1.117.569,2.706,2.706,0,0,0-.752.906,2.611,2.611,0,0,0-.274,1.209,2.934,2.934,0,0,0,.225,1.222,2.179,2.179,0,0,0,.632.815,3.536,3.536,0,0,0,.976.534,10.1,10.1,0,0,0,1.244.365q.688.155,1.124.3a2.78,2.78,0,0,1,.667.294.871.871,0,0,1,.317.331.944.944,0,0,1,.084.414.883.883,0,0,1-.414.815,2.58,2.58,0,0,1-1.3.252,3.568,3.568,0,0,1-1.355-.26,3.038,3.038,0,0,1-1.159-.864L15.532-4.228a3.813,3.813,0,0,0,1.574,1.307,5.2,5.2,0,0,0,2.247.478,5.887,5.887,0,0,0,1.736-.225,3.3,3.3,0,0,0,1.2-.639,2.5,2.5,0,0,0,.7-.99,3.5,3.5,0,0,0,.225-1.278,2.647,2.647,0,0,0-.3-1.321M39.486-2.6,35.875-9.033l2.881-3.4H36.382L33.628-9.076q-.2.239-.436.534a4.044,4.044,0,0,0-.337.463c0-.075,0-.183.007-.323s.009-.286.013-.436.007-.3.007-.442v-3.154H30.916V-2.6h1.966V-5.493l1.574-1.855L37.126-2.6ZM54.07-10.684a2.78,2.78,0,0,0-.731-.976,3.032,3.032,0,0,0-1.082-.583,4.442,4.442,0,0,0-1.307-.19h-4.3V-2.6h1.967V-6.083h2.163a5.21,5.21,0,0,0,1.412-.183,3.028,3.028,0,0,0,1.131-.576,2.65,2.65,0,0,0,.745-1,3.661,3.661,0,0,0,.267-1.469,3.27,3.27,0,0,0-.267-1.37M50.908-7.993H48.619v-2.529H50.88a1.655,1.655,0,0,1,1.047.3,1.131,1.131,0,0,1,.386.948q0,1.278-1.405,1.278M69.5-2.6l-3.737-9.835H63.848L60.083-2.6h2.108l.772-2.192h3.6L67.332-2.6ZM65.885-6.645H63.637l.632-1.792q.155-.437.288-.847c.089-.272.156-.5.2-.691.047.188.114.419.2.691s.185.556.288.847ZM83.841-2.6V-4.537H78.91v-7.9H76.942V-2.6Z" transform="translate(10.038 12.588)" fill="#303339"/>
      </g>
      <g id="Group_346" data-name="Group 346" transform="translate(31.293 0)">
        <path id="Path_109" data-name="Path 109" d="M-4.655,0H-22.084a.459.459,0,0,0-.468.468V35.711a.459.459,0,0,0,.468.469H8.486s.469,0,.136-.329c0,0-9.665-9.536-9.7-9.583a.361.361,0,0,1,.094-.557C16.948,16.515,5.652,0-4.655,0" transform="translate(22.552)" fill="#2b2e34"/>
      </g>
      <g id="Group_347" data-name="Group 347" transform="translate(36.644 5.375)">
        <path id="Path_110" data-name="Path 110" d="M0,0H12.03c7.262,0,13.626,11.871-3.12,17.138V32.925L0,31.318Z" fill="#f4f4f4"/>
      </g>
    </g>
  </g>
</svg>
