<svg xmlns="http://www.w3.org/2000/svg" width="24" height="24" viewBox="0 0 24 24">
  <g id="Group_1044" data-name="Group 1044" transform="translate(-923 -534)">
    <rect id="Rectangle_2240" data-name="Rectangle 2240" width="24" height="24" rx="12" transform="translate(923 534)" fill="#1c9bd8"/>
    <path id="Path_333" data-name="Path 333" d="M7.624,0A.4.4,0,0,0,7.5.04L3.932,3.451.321.04C.281.04.241,0,.2,0A.19.19,0,0,0,0,.2a.4.4,0,0,0,.04.12L3.772,3.852a.147.147,0,0,0,.12.04.4.4,0,0,0,.12-.04L7.744.321A.147.147,0,0,0,7.784.2C7.824.08,7.744,0,7.624,0Z" transform="translate(931 544.5)" fill="#fff" stroke="#fff" stroke-width="2"/>
  </g>
</svg>
