<svg xmlns="http://www.w3.org/2000/svg" width="104" height="104" viewBox="0 0 104 104">
  <g id="Group_1038" data-name="Group 1038" transform="translate(-803.52 -229.923)">
    <g id="Ellipse_151" data-name="Ellipse 151" transform="translate(803.52 229.923)" fill="none" stroke="#1c9bd8" stroke-width="3">
      <ellipse cx="52" cy="52" rx="52" ry="52" stroke="none"/>
      <ellipse cx="52" cy="52" rx="50.5" ry="50.5" fill="none"/>
    </g>
    <path id="iconmonstr-marketing-29" d="M9.043,35.729l4.809.663-3.5,3.364.855,4.779-4.28-2.29-4.28,2.29L3.5,39.756,0,36.392l4.809-.663,2.117-4.367Zm16.82,0,4.809.663-3.5,3.364.855,4.779-4.28-2.29-4.28,2.29.855-4.779-3.5-3.364,4.809-.663,2.117-4.367Zm16.82,0,4.809.663-3.5,3.364.855,4.779-4.28-2.29-4.28,2.29.855-4.779-3.5-3.364,4.809-.663,2.117-4.367,2.117,4.367ZM6.129,37.546,4.314,37.8l1.32,1.268-.323,1.8L6.926,40l1.615.863-.323-1.8L9.538,37.8l-1.815-.249-.8-1.646-.8,1.646Zm16.82,0-1.815.249,1.32,1.268-.323,1.8L23.746,40l1.615.863-.323-1.8,1.32-1.268-1.815-.249-.8-1.646Zm16.82,0-1.815.249,1.32,1.268-.323,1.8L40.567,40l1.615.863-.323-1.8,1.32-1.268-1.815-.249-.8-1.646ZM47.493,28.7H0V24.63C0,22.671.156,21.539,2.472,21c2.675-.615,5.165-1.158,3.956-3.431-3.665-6.93-.97-10.634,2.9-10.634,3.946,0,6.578,3.845,2.9,10.634a1.535,1.535,0,0,0,.562,2.365,4.645,4.645,0,0,1,2.22-1.031c3.33-.77,6.617-1.456,5.036-4.371C15.37,5.9,18.718,1,23.744,1c4.929,0,8.363,4.716,3.693,13.534-1.534,2.9,1.635,3.586,5.036,4.371A4.616,4.616,0,0,1,34.7,19.938a1.535,1.535,0,0,0,.564-2.367c-3.677-6.79-1.045-10.634,2.9-10.634,3.875,0,6.57,3.7,2.9,10.634-1.207,2.274,1.28,2.816,3.956,3.431,2.315.536,2.472,1.668,2.472,3.627ZM35.62,26.725h9.894v-2.1c0-1.549.042-1.472-.94-1.7-4.506-1.061-5.048-1.937-5.511-2.949a3.649,3.649,0,0,1,.255-3.34c1.514-2.863,1.916-5.284,1.1-6.637-.778-1.29-3.54-1.642-4.53.024-.807,1.356-.39,3.821,1.112,6.6a3.633,3.633,0,0,1,.279,3.34,3.186,3.186,0,0,1-1.753,1.749,12.491,12.491,0,0,1,.095,1.8ZM11.966,21.717a3.2,3.2,0,0,1-1.751-1.749,3.633,3.633,0,0,1,.279-3.34c1.5-2.776,1.921-5.242,1.112-6.6-.989-1.666-3.752-1.314-4.53-.024-.817,1.354-.416,3.774,1.1,6.637a3.649,3.649,0,0,1,.255,3.34c-.461,1.011-1.005,1.888-5.511,2.949-.98.226-.94.148-.94,1.7v2.1h9.894V23.514a12.4,12.4,0,0,1,.093-1.8Zm21.675,5.009v-3.2c0-2.23-.059-2.331-1.611-2.689-5.444-1.255-6.121-2.3-6.647-3.451a4.122,4.122,0,0,1,.3-3.774c2.022-3.817,2.529-7.088,1.391-8.98a3.768,3.768,0,0,0-3.334-1.648,3.778,3.778,0,0,0-3.362,1.682c-1.142,1.918-.629,5.171,1.409,8.929a4.109,4.109,0,0,1,.334,3.778c-.572,1.268-1.344,2.2-6.665,3.465-1.549.358-1.609.459-1.609,2.681v3.212H33.641Z" transform="translate(832.188 257.696)" fill="#0d2234" fill-rule="evenodd"/>
  </g>
</svg>
