<svg xmlns="http://www.w3.org/2000/svg" width="25.465" height="19.099" viewBox="0 0 25.465 19.099">
  <path id="iconmonstr-dashboard-7" d="M21.243,13.179a9.5,9.5,0,0,0-.547-1.318l-2.6,1.174a6.572,6.572,0,0,1,.549,1.318ZM7.9,12.22A6.314,6.314,0,0,1,8.878,11.2L6.872,9.116A9.276,9.276,0,0,0,5.9,10.131Zm1.82-1.607a5.983,5.983,0,0,1,1.271-.555L9.9,7.332a8.873,8.873,0,0,0-1.271.556ZM6.795,14.45a6.613,6.613,0,0,1,.528-1.326L4.7,11.992a9.461,9.461,0,0,0-.528,1.326l2.62,1.131ZM16.8,7.871a8.8,8.8,0,0,0-1.273-.551l-1.086,2.73a5.954,5.954,0,0,1,1.273.551Zm2.76,2.26a9.376,9.376,0,0,0-.974-1.015L16.585,11.2a6.352,6.352,0,0,1,.974,1.015ZM13.42,6.886c-.232-.019-.464-.028-.689-.028s-.457.01-.69.028V9.839a6.013,6.013,0,0,1,.69-.04,5.751,5.751,0,0,1,.689.04V6.886ZM12.732,22.1a2.486,2.486,0,0,1-1.2-4.662l1.2-5.948,1.2,5.947a2.487,2.487,0,0,1-1.2,4.663Zm12.732-6.366A12.649,12.649,0,0,1,23.757,22.1l-1.842-1.064a10.61,10.61,0,1,0-18.364,0L1.708,22.1a12.731,12.731,0,1,1,23.757-6.365Z" transform="translate(0 -3)" fill="#0d2234"/>
</svg>
