<svg xmlns="http://www.w3.org/2000/svg" width="82.465" height="82.465" viewBox="0 0 82.465 82.465">
  <g id="Group_1035" data-name="Group 1035" transform="translate(-1103.535 -149)">
    <rect id="Rectangle_2226" data-name="Rectangle 2226" width="82.465" height="82.465" rx="41.232" transform="translate(1103.535 149)" fill="#1c9bd8"/>
    <path id="iconmonstr-photo-camera-7_1_" data-name="iconmonstr-photo-camera-7 (1)" d="M17.413,4.9,15.478,2H7.739L5.8,4.9H0V21.347H23.217V4.9Zm3.869,6.772H17.336a5.808,5.808,0,1,1-11.456,0H1.935V6.837h4.9l1.935-2.9h5.668l1.935,2.9h4.906Zm-9.674-2.9a3.8,3.8,0,0,0-3.869,3.81,3.87,3.87,0,1,0,7.739,0A3.8,3.8,0,0,0,11.608,8.772Zm-.422,3.439A1.271,1.271,0,0,1,9.4,12.2a1.317,1.317,0,0,1,.424-1.767,1.271,1.271,0,0,1,1.791.007,1.315,1.315,0,0,1-.423,1.766Z" transform="translate(1132.7 178.099)" fill="#fff"/>
  </g>
</svg>
