<svg xmlns="http://www.w3.org/2000/svg" width="23.357" height="17.519" viewBox="0 0 23.357 17.519">
  <path id="iconmonstr-dashboard-7" d="M19.485,12.336a8.711,8.711,0,0,0-.5-1.209L16.595,12.2a6.028,6.028,0,0,1,.5,1.209ZM7.249,11.458a5.792,5.792,0,0,1,.894-.931L6.3,8.61a8.509,8.509,0,0,0-.893.931ZM8.918,9.983a5.488,5.488,0,0,1,1.166-.509l-1.006-2.5a8.139,8.139,0,0,0-1.166.51ZM6.233,13.5a6.066,6.066,0,0,1,.485-1.217l-2.4-1.037a8.678,8.678,0,0,0-.485,1.217l2.4,1.037Zm9.182-6.034a8.074,8.074,0,0,0-1.168-.505l-1,2.5a5.462,5.462,0,0,1,1.168.505Zm2.531,2.073a8.6,8.6,0,0,0-.893-.931l-1.839,1.916a5.826,5.826,0,0,1,.893.931ZM12.31,6.564c-.213-.018-.425-.025-.632-.025s-.419.009-.633.025v2.71a5.515,5.515,0,0,1,.633-.037,5.275,5.275,0,0,1,.632.037V6.564Zm-.631,13.955a2.28,2.28,0,0,1-1.1-4.276l1.1-5.456,1.1,5.455a2.281,2.281,0,0,1-1.1,4.277Zm11.679-5.84a11.6,11.6,0,0,1-1.567,5.839l-1.69-.976a9.733,9.733,0,1,0-16.845,0l-1.69.976a11.678,11.678,0,1,1,21.791-5.839Z" transform="translate(0 -3)" fill="#5b636f"/>
</svg>
