<svg xmlns="http://www.w3.org/2000/svg" xmlns:xlink="http://www.w3.org/1999/xlink" width="51.879" height="30.512" viewBox="0 0 51.879 30.512">
  <defs>
    <clipPath id="clip-path">
      <path id="Path_111" data-name="Path 111" d="M0-39.063H51.879V-69.574H0Z" transform="translate(0 69.574)" fill="none"/>
    </clipPath>
  </defs>
  <g id="Group_349" data-name="Group 349" transform="translate(0 -2)">
    <g id="Group_348" data-name="Group 348" transform="translate(0 2)" clip-path="url(#clip-path)">
      <g id="Group_345" data-name="Group 345" transform="translate(0 24.906)">
        <path id="Path_108" data-name="Path 108" d="M-5.636-7.068l-1.04-2.112a1.6,1.6,0,0,0,.78-.594,1.786,1.786,0,0,0,.26-1.006,1.807,1.807,0,0,0-.147-.757,1.542,1.542,0,0,0-.4-.539,1.676,1.676,0,0,0-.6-.322,2.457,2.457,0,0,0-.722-.1h-2.531v5.435h1.087V-9.024h1.1l.97,1.956ZM-7.53-10.049H-8.951v-1.4H-7.53a.911.911,0,0,1,.571.159.632.632,0,0,1,.206.532q0,.706-.777.706M-.224-12.5H-1.311v5.435H-.224Zm0,5.435,8.4-2.376a1.457,1.457,0,0,0-.423-.474,2.1,2.1,0,0,0-.582-.291q-.322-.105-.649-.182c-.217-.052-.4-.1-.535-.14a1.651,1.651,0,0,1-.334-.132.439.439,0,0,1-.175-.159.442.442,0,0,1-.05-.221.422.422,0,0,1,.039-.179.408.408,0,0,1,.132-.155.749.749,0,0,1,.241-.112,1.329,1.329,0,0,1,.365-.043,1.528,1.528,0,0,1,.672.144,1.987,1.987,0,0,1,.563.415l.784-.761a2.925,2.925,0,0,0-.866-.629,2.586,2.586,0,0,0-1.114-.225,2.563,2.563,0,0,0-.757.109,1.917,1.917,0,0,0-.617.314,1.5,1.5,0,0,0-.415.5A1.443,1.443,0,0,0,4.3-11a1.621,1.621,0,0,0,.124.675,1.2,1.2,0,0,0,.35.45,1.954,1.954,0,0,0,.539.3,5.579,5.579,0,0,0,.687.2q.38.086.621.163a1.536,1.536,0,0,1,.369.163.481.481,0,0,1,.175.183.521.521,0,0,1,.046.229.488.488,0,0,1-.229.45,1.426,1.426,0,0,1-.718.139,1.972,1.972,0,0,1-.749-.143,1.679,1.679,0,0,1-.641-.478l-.784.7a2.107,2.107,0,0,0,.87.722A2.875,2.875,0,0,0,6.2-6.982a3.253,3.253,0,0,0,.959-.125,1.822,1.822,0,0,0,.664-.353,1.381,1.381,0,0,0,.388-.547,1.936,1.936,0,0,0,.124-.706,1.463,1.463,0,0,0-.163-.73M17.33-7.068l-2-3.556L16.926-12.5H15.614l-1.522,1.855q-.109.132-.241.3a2.235,2.235,0,0,0-.186.256c0-.041,0-.1,0-.178s0-.158.007-.241,0-.164,0-.244V-12.5H12.594v5.435h1.087v-1.6l.87-1.025,1.475,2.624Zm8.059-4.468a1.536,1.536,0,0,0-.4-.539,1.676,1.676,0,0,0-.6-.322,2.455,2.455,0,0,0-.722-.1H21.289v5.435h1.087V-8.993h1.2a2.879,2.879,0,0,0,.78-.1,1.674,1.674,0,0,0,.625-.318,1.464,1.464,0,0,0,.412-.555,2.023,2.023,0,0,0,.147-.812,1.807,1.807,0,0,0-.147-.757m-1.747,1.487H22.377v-1.4h1.25a.915.915,0,0,1,.578.167.625.625,0,0,1,.214.524q0,.706-.777.706M33.914-7.068,31.849-12.5H30.793L28.712-7.068h1.165L30.3-8.279h1.988l.427,1.211Zm-2-2.236H30.676l.35-.99q.086-.241.159-.468c.049-.15.086-.278.113-.382.026.1.063.232.112.382s.1.307.159.468Zm9.923,2.236V-8.139H39.116V-12.5H38.029v5.435Z" transform="translate(10.038 12.588)" fill="#303339"/>
      </g>
      <g id="Group_346" data-name="Group 346" transform="translate(17.293 0)">
        <path id="Path_109" data-name="Path 109" d="M-12.662,0h-9.631a.253.253,0,0,0-.259.259V19.735a.254.254,0,0,0,.259.259H-5.4s.259,0,.075-.182c0,0-5.341-5.27-5.359-5.3a.2.2,0,0,1,.052-.308C-.724,9.127-6.966,0-12.662,0" transform="translate(22.552)" fill="#2b2e34"/>
      </g>
      <g id="Group_347" data-name="Group 347" transform="translate(20.25 2.97)">
        <path id="Path_110" data-name="Path 110" d="M0,0H6.648c4.013,0,7.53,6.56-1.724,9.471v8.724L0,17.307Z" fill="#fff"/>
      </g>
    </g>
  </g>
</svg>
